# xmcd CD database file
#
# Track frame offsets:
#	150
#	27645
#	55458
#	79322
#	102331
#	117148
#	128287
#	145973
#	176602
#	194329
#	213321
#	232111
#
# Disc length: 3423 seconds
#
# Revision: 0
# Processed by: cddbd v1.5.1PL2 Copyright (c) Steve Scherf et al.
# Submitted via: CDex 1.51
#
DISCID=ac0d5d0c
DTITLE=The Jazz Bar - The Finest Jazz Ballads and Blues
DYEAR=2001
DGENRE=Jazz
TTITLE0=Larry Gales Sextet - ROUND MIDNIGHT
TTITLE1=Shirley Scott Trio - AUTUMN LEAVES
TTITLE2=Don Byas Quartet - TENDERLY
TTITLE3=Harry Edison Quartet - WILLOW WEEP FOR ME
TTITLE4=Coleman Hawkins Quartet - BODY AND SOUL
TTITLE5=Roy Eldridge Quartet - EMBRACEABLE YOU
TTITLE6=Dizzy Gillespie Quintet - I CAN'T GET STARTED
TTITLE7=Buddy Tate Trio - YOU'VE CHANGED
TTITLE8=Milt Buckner - Jo Jones Duo - MIGHTY LOW
TTITLE9=Gene Di Novi Trio - BILL
TTITLE10=Benny Aronov Quartet - IN A SENTIMENTAL MOOD
TTITLE11=Chet Baker Quartet - I WAITED FOR YOU
EXTD=YEAR: 2001
EXTT0=
EXTT1=
EXTT2=
EXTT3=
EXTT4=
EXTT5=
EXTT6=
EXTT7=
EXTT8=
EXTT9=
EXTT10=
EXTT11=
PLAYORDER=
